<svg width="19" height="19" viewBox="0 0 19 19" fill="none" xmlns="http://www.w3.org/2000/svg">
<path d="M8.70536 17.7594C8.34487 17.7594 8.02679 17.6287 7.75112 17.3672L6.95592 16.5719C6.68731 16.3033 6.55301 15.9817 6.55301 15.6071C6.55301 15.2254 6.68731 14.9073 6.95592 14.6529L10.0625 11.5357L2.59822 11.5357C2.23066 11.5357 1.93201 11.4031 1.70229 11.1381C1.47257 10.873 1.3577 10.5532 1.3577 10.1785L1.3577 8.82139C1.3577 8.44676 1.47257 8.12692 1.70229 7.86185C1.93201 7.59678 2.23066 7.46425 2.59822 7.46425L10.0625 7.46425L6.95592 4.34706C6.68731 4.0926 6.55301 3.77452 6.55301 3.39282C6.55301 3.01113 6.68731 2.69304 6.95592 2.43858L7.75112 1.64338C8.01972 1.37478 8.3378 1.24048 8.70536 1.24048C9.07999 1.24048 9.4016 1.37478 9.6702 1.64338L16.5725 8.54572C16.8341 8.79312 16.9648 9.1112 16.9648 9.49996C16.9648 9.88166 16.8341 10.2033 16.5725 10.4648L9.6702 17.3672C9.39453 17.6287 9.07292 17.7594 8.70536 17.7594Z" fill="white"/>
</svg>
