<svg width="40" height="40" viewBox="0 0 40 40" fill="none" xmlns="http://www.w3.org/2000/svg">
<path d="M17.7744 18.2001C17.0872 18.2001 16.5244 18.75 16.5244 19.4373C16.5244 20.1373 17.0872 20.7001 17.7744 20.7001C18.4751 20.7001 19.0244 20.1373 19.0244 19.4373C19.0244 18.75 18.4751 18.2001 17.7744 18.2001ZM17.7744 26.0126C17.0872 26.0126 16.5244 26.5747 16.5244 27.2626C16.5244 27.962 17.0872 28.5248 17.7744 28.5248C18.4751 28.5248 19.0244 27.962 19.0244 27.2626C19.0244 26.5747 18.4751 26.0126 17.7744 26.0126Z" fill="white"/>
<path d="M33.0591 22.7927V8.02307C33.0591 6.1438 31.5308 4.61487 29.6509 4.61487H26.0437V3.75C26.0437 3.05969 25.4846 2.5 24.7937 2.5C24.1028 2.5 23.5437 3.05969 23.5437 3.75V4.61487H12.0142V3.75C12.0142 3.05969 11.4551 2.5 10.7642 2.5C10.0732 2.5 9.51416 3.05969 9.51416 3.75V4.61487H5.9082C4.02832 4.61487 2.5 6.1438 2.5 8.02307V29.6503C2.5 31.5295 4.02832 33.0585 5.9082 33.0585H22.7925C24.03 35.6785 26.6904 37.5 29.7754 37.5C34.0344 37.5 37.5 34.0344 37.5 29.7748C37.5 26.6904 35.6786 24.0302 33.0591 22.7927ZM29.7754 35C26.8933 35 24.5496 32.6562 24.5496 29.7748C24.5496 26.8933 26.8933 24.5496 29.7754 24.5496C32.6562 24.5496 35 26.8933 35 29.7748C35 32.6562 32.6562 35 29.7754 35ZM5 8.02307C5 7.52258 5.40771 7.11487 5.9082 7.11487H9.51416V9.20227C9.18823 9.42749 8.97461 9.80408 8.97461 10.2307C8.97461 10.921 9.53369 11.4807 10.2246 11.4807H10.7642C11.4551 11.4807 12.0142 10.921 12.0142 10.2307V7.11487H23.5437V9.20227C23.2178 9.42749 23.0042 9.80408 23.0042 10.2307C23.0042 10.921 23.5632 11.4807 24.2542 11.4807H24.7937C25.4846 11.4807 26.0437 10.921 26.0437 10.2307V7.11487H29.6509C30.1514 7.11487 30.5591 7.52258 30.5591 8.02307V13.6517H5V8.02307ZM5.9082 30.5585C5.40771 30.5585 5 30.1508 5 29.6503V16.1517H30.5591V22.0893C30.3014 22.0632 30.0399 22.0496 29.7754 22.0496C25.5151 22.0496 22.0496 25.5151 22.0496 29.7748C22.0496 30.0393 22.0632 30.3007 22.0893 30.5585H5.9082Z" fill="white"/>
<path d="M32.03 28.5248H31.0254V27.5201C31.0254 26.8298 30.4663 26.2701 29.7754 26.2701C29.0845 26.2701 28.5254 26.8298 28.5254 27.5201V29.7748C28.5254 30.4651 29.0845 31.0248 29.7754 31.0248H32.03C32.7209 31.0248 33.28 30.4651 33.28 29.7748C33.28 29.0845 32.7209 28.5248 32.03 28.5248ZM9.6875 18.2001C9.00024 18.2001 8.4375 18.75 8.4375 19.4373C8.4375 20.1373 9.00024 20.7001 9.6875 20.7001C10.3882 20.7001 10.9375 20.1373 10.9375 19.4373C10.9375 18.75 10.3882 18.2001 9.6875 18.2001ZM25.8752 18.2001C25.188 18.2001 24.6252 18.75 24.6252 19.4373C24.6252 20.1373 25.188 20.7001 25.8752 20.7001C26.5759 20.7001 27.1252 20.1373 27.1252 19.4373C27.1252 18.75 26.5759 18.2001 25.8752 18.2001ZM9.6875 26.0126C9.00024 26.0126 8.4375 26.5747 8.4375 27.2626C8.4375 27.962 9.00024 28.5248 9.6875 28.5248C10.3882 28.5248 10.9375 27.962 10.9375 27.2626C10.9375 26.5747 10.3882 26.0126 9.6875 26.0126Z" fill="white"/>
</svg>
