<svg width="20" height="20" viewBox="0 0 20 20" fill="none" xmlns="http://www.w3.org/2000/svg">
<path d="M12.4319 0C13.7719 0 14.4419 0.912 14.4419 1.957C14.4419 3.262 13.2779 4.469 11.7629 4.469C10.4939 4.469 9.7539 3.719 9.7889 2.479C9.7889 1.436 10.6699 0 12.4319 0ZM8.3089 20C7.2509 20 6.4759 19.348 7.2159 16.476L8.4299 11.384C8.6409 10.57 8.6759 10.243 8.4299 10.243C8.1129 10.243 6.7409 10.805 5.9279 11.36L5.3999 10.48C7.9719 8.294 10.9309 7.013 12.2009 7.013C13.2579 7.013 13.4339 8.286 12.9059 10.243L11.5149 15.595C11.2689 16.54 11.3739 16.866 11.6209 16.866C11.9379 16.866 12.9779 16.474 13.9999 15.659L14.5999 16.473C12.0979 19.02 9.3649 20 8.3089 20Z" fill="white"/>
</svg>
