<svg width="14" height="25" viewBox="0 0 14 25" fill="none" xmlns="http://www.w3.org/2000/svg">
<path fill-rule="evenodd" clip-rule="evenodd" d="M13.5343 0.364996C13.2828 0.130498 12.9493 -0.000244141 12.6026 -0.000244141C12.2559 -0.000244141 11.9224 0.130498 11.671 0.364996L0.772622 10.695C0.528667 10.9227 0.334414 11.1968 0.201676 11.5005C0.0689383 11.8042 0.000488281 12.1313 0.000488281 12.4619C0.000488281 12.7924 0.0689383 13.1195 0.201676 13.4232C0.334414 13.727 0.528667 14.001 0.772622 14.2287L11.7499 24.635C12.259 25.1162 13.0837 25.1225 13.6004 24.6475C13.7255 24.5343 13.8256 24.3971 13.8945 24.2444C13.9633 24.0916 13.9995 23.9266 14.0007 23.7596C14.0018 23.5926 13.9681 23.4271 13.9014 23.2734C13.8348 23.1197 13.7366 22.9811 13.6132 22.8662L3.56753 13.345C3.44545 13.2311 3.34824 13.0941 3.28181 12.9421C3.21539 12.7902 3.18113 12.6266 3.18113 12.4612C3.18113 12.2959 3.21539 12.1323 3.28181 11.9804C3.34824 11.8284 3.44545 11.6914 3.56753 11.5775L13.533 2.13125C13.655 2.0175 13.7522 1.88054 13.8186 1.72871C13.885 1.57688 13.9193 1.41337 13.9193 1.24812C13.9193 1.08288 13.885 0.919359 13.8186 0.767532C13.7522 0.615706 13.6563 0.478746 13.5343 0.364996Z" fill="#717171"/>
</svg>
