<svg width="28" height="34" viewBox="0 0 28 34" fill="none" xmlns="http://www.w3.org/2000/svg">
<g clip-path="url(#clip0_1069_41)">
<path fill-rule="evenodd" clip-rule="evenodd" d="M26.5999 14.1666C26.5999 24.0833 13.9999 32.5833 13.9999 32.5833C13.9999 32.5833 1.3999 24.0833 1.3999 14.1666C1.3999 10.7851 2.7274 7.5421 5.09036 5.15101C7.45332 2.75993 10.6582 1.41663 13.9999 1.41663C17.3416 1.41663 20.5465 2.75993 22.9094 5.15101C25.2724 7.5421 26.5999 10.7851 26.5999 14.1666Z" stroke="#778292" stroke-width="2.5" stroke-linecap="round" stroke-linejoin="round"/>
<path d="M13.9998 18.4166C16.3194 18.4166 18.1998 16.5138 18.1998 14.1666C18.1998 11.8194 16.3194 9.91663 13.9998 9.91663C11.6802 9.91663 9.7998 11.8194 9.7998 14.1666C9.7998 16.5138 11.6802 18.4166 13.9998 18.4166Z" stroke="#778292" stroke-width="2.5" stroke-linecap="round" stroke-linejoin="round"/>
</g>
<defs>
<clipPath id="clip0_1069_41">
<rect width="28" height="34" fill="white"/>
</clipPath>
</defs>
</svg>
