<svg width="14" height="25" viewBox="0 0 14 25" fill="none" xmlns="http://www.w3.org/2000/svg">
    <path 
        fill-rule="evenodd" 
        clip-rule="evenodd" 
        d="M0.465739 24.635C0.717158 24.8695 1.05065 25.0002 1.39738 25.0002C1.7441 25.0002 2.07759 24.8695 2.32901 24.635L13.2274 14.305C13.4713 14.0773 13.6656 13.8032 13.7983 13.4995C13.9311 13.1958 13.9995 12.8687 13.9995 12.5381C13.9995 12.2076 13.9311 11.8805 13.7983 11.5768C13.6656 11.273 13.4713 10.999 13.2274 10.7713L2.25011 0.365004C1.74101 -0.116246 0.916287 -0.122497 0.399559 0.352504C0.274457 0.465667 0.174376 0.602881 0.105529 0.755624C0.0366823 0.908368 0.000540918 1.07338 -0.000652143 1.24041C-0.00184616 1.40745 0.0319339 1.57295 0.098591 1.72662C0.165248 1.8803 0.263359 2.01888 0.386831 2.13376L10.4325 11.655C10.5545 11.7689 10.6518 11.9059 10.7182 12.0579C10.7846 12.2098 10.8189 12.3734 10.8189 12.5388C10.8189 12.7041 10.7846 12.8677 10.7182 13.0196C10.6518 13.1716 10.5545 13.3086 10.4325 13.4225L0.467012 22.8688C0.34497 22.9825 0.247782 23.1195 0.181368 23.2713C0.114954 23.4231 0.0807048 23.5866 0.0807048 23.7519C0.0807048 23.9171 0.114954 24.0806 0.181368 24.2325C0.247782 24.3843 0.343698 24.5213 0.465739 24.635Z"
        fill="#33B7BC"
    />
</svg>
